# xmcd CD database file
#
# Track frame offsets:
#	150
#	24070
#	44953
#	65596
#	87745
#	102152
#	127804
#	144062
#	179904
#	207948
#	241194
#
# Disc length: 3765 seconds
#
# Revision: 2
# Processed by: cddbd v1.5.2PL0 Copyright (c) Steve Scherf et al.
# Submitted via: CDex 1.70beta2
#
DISCID=990eb30b
DTITLE=寺井尚子 - ジェラシー
DYEAR=2007
DGENRE=Jazz
TTITLE0=ジェラシー
TTITLE1=アフロ・ブルー
TTITLE2=ブルー・ボレロ
TTITLE3=クレッセント・ムーン
TTITLE4=デイ・アンド・デイ
TTITLE5=アメイジング・グレイス
TTITLE6=ハッピー・ディキシー・ランド
TTITLE7=ハッシャ・バイ
TTITLE8=ミー、マイ・フレンド
TTITLE9=ホワット・ゲーム・シャル・ウィ・プレイ・トゥデイ
TTITLE10=ジェラシー CD-EXTRA
EXTD=YEAR: 2007
EXTT0=
EXTT1=
EXTT2=
EXTT3=
EXTT4=
EXTT5=
EXTT6=
EXTT7=
EXTT8=
EXTT9=
EXTT10=
PLAYORDER=
